<?xml version="1.0" encoding="UTF-8" standalone="no"?>
<svg width="176px" height="182px" viewBox="0 0 176 182" version="1.1" xmlns="http://www.w3.org/2000/svg" xmlns:xlink="http://www.w3.org/1999/xlink" xmlns:sketch="http://www.bohemiancoding.com/sketch/ns">
    <!-- Generator: Sketch 3.5.1 (25234) - http://www.bohemiancoding.com/sketch -->
    <title>Group</title>
    <desc>Created with Sketch.</desc>
    <defs></defs>
    <g id="Page-1" stroke="none" stroke-width="1" fill="none" fill-rule="evenodd" sketch:type="MSPage">
        <g id="true-final" sketch:type="MSArtboardGroup" transform="translate(-32.000000, -29.000000)">
            <g id="Group" sketch:type="MSLayerGroup" transform="translate(32.000000, 29.000000)">
                <path d="M16.2250286,175.227019 L25.6358784,164.228208 L91.557022,137.913043 L101.001752,138.622762 L136.814923,150.104236 L146.132539,156.427121 L164.710213,181.666907 L13.2330827,181.666906 L16.2250286,175.227019 Z" id="Rectangle-121" fill="#BCDEEF" sketch:type="MSShapeGroup" transform="translate(88.971648, 159.789975) scale(-1, -1) translate(-88.971648, -159.789975) "></path>
                <polygon id="Triangle-177" fill="#AACBD3" sketch:type="MSShapeGroup" transform="translate(119.102474, 125.386478) scale(1, -1) translate(-119.102474, -125.386478) " points="86.0150376 68.9565217 152.189911 95.4444415 152.189911 181.664419 119.058163 115.521704 86.0150376 181.816435 "></polygon>
                <polygon id="Triangle-177" fill="#AACBD3" sketch:type="MSShapeGroup" transform="translate(58.887218, 122.327167) scale(1, -1) translate(-58.887218, -122.327167) " points="41.0225564 75.2600723 76.7518797 63.6521739 76.7518797 181.002161 41.0225564 181.002161 "></polygon>
                <polygon id="Triangle-177" fill="#DADADA" sketch:type="MSShapeGroup" transform="translate(168.716847, 99.407726) scale(1, -1) translate(-168.716847, -99.407726) " points="161.443609 54.3695652 175.990086 83.7578828 175.990086 136.86384 161.443609 144.445887 "></polygon>
                <polygon id="Triangle-177" fill="#BCDEEF" sketch:type="MSShapeGroup" transform="translate(109.955165, 57.257425) scale(1, -1) translate(-109.955165, -57.257425) " points="118.708276 0 160.361458 82.3543991 59.5488722 114.514851 "></polygon>
                <path d="M59.820284,0 L161.21975,54.2389314 L1.32330827,54.2389324 L59.820284,0 Z" id="Rectangle-121" fill="#DADADA" sketch:type="MSShapeGroup"></path>
                <polygon id="Triangle-177" fill="#AACBD3" sketch:type="MSShapeGroup" transform="translate(15.681798, 113.439652) scale(1, -1) translate(-15.681798, -113.439652) " points="0 106.22405 31.3635958 63.6521739 31.3635967 163.227131 0 163.227129 "></polygon>
            </g>
        </g>
    </g>
</svg>